<?xml version="1.0" encoding="UTF-8"?>
<!DOCTYPE svg PUBLIC "-//W3C//DTD SVG 1.1//EN" "http://www.w3.org/Graphics/SVG/1.1/DTD/svg11.dtd">
<svg xmlns="http://www.w3.org/2000/svg" version="1.1" width="30px" height="30px" style="shape-rendering:geometricPrecision; text-rendering:geometricPrecision; image-rendering:optimizeQuality; fill-rule:evenodd; clip-rule:evenodd" xmlns:xlink="http://www.w3.org/1999/xlink">
<g><path style="opacity:0.947" fill="#1b3eaa" d="M 10.5,-0.5 C 13.1667,-0.5 15.8333,-0.5 18.5,-0.5C 23.8986,2.64702 25.732,7.31368 24,13.5C 20.8867,18.7287 18.0534,24.062 15.5,29.5C 14.8333,29.5 14.1667,29.5 13.5,29.5C 10.9339,24.0351 8.10062,18.7017 5,13.5C 3.26802,7.31368 5.10135,2.64702 10.5,-0.5 Z M 17.5,4.5 C 15.5,4.5 13.5,4.5 11.5,4.5C 13.5,1.83333 15.5,1.83333 17.5,4.5 Z M 11.5,4.5 C 11.1667,5.5 10.5,6.16667 9.5,6.5C 9.5,5.16667 10.1667,4.5 11.5,4.5 Z M 17.5,4.5 C 18.8333,4.5 19.5,5.16667 19.5,6.5C 18.5,6.16667 17.8333,5.5 17.5,4.5 Z M 9.5,6.5 C 9.5,8.5 9.5,10.5 9.5,12.5C 6.83333,10.5 6.83333,8.5 9.5,6.5 Z M 19.5,6.5 C 22.1667,8.5 22.1667,10.5 19.5,12.5C 19.5,10.5 19.5,8.5 19.5,6.5 Z M 9.5,12.5 C 10.5,12.8333 11.1667,13.5 11.5,14.5C 10.1667,14.5 9.5,13.8333 9.5,12.5 Z M 19.5,12.5 C 19.5,13.8333 18.8333,14.5 17.5,14.5C 17.8333,13.5 18.5,12.8333 19.5,12.5 Z M 11.5,14.5 C 13.5,14.5 15.5,14.5 17.5,14.5C 15.5,17.1667 13.5,17.1667 11.5,14.5 Z"/></g>
<g><path style="opacity:0.986" fill="#1c3eaa" d="M 11.5,4.5 C 13.5,4.5 15.5,4.5 17.5,4.5C 17.8333,5.5 18.5,6.16667 19.5,6.5C 19.5,8.5 19.5,10.5 19.5,12.5C 18.5,12.8333 17.8333,13.5 17.5,14.5C 15.5,14.5 13.5,14.5 11.5,14.5C 11.1667,13.5 10.5,12.8333 9.5,12.5C 9.5,10.5 9.5,8.5 9.5,6.5C 10.5,6.16667 11.1667,5.5 11.5,4.5 Z"/></g>
</svg>
